<?xml version="1.0" encoding="utf-8"?>
<!-- Generator: Adobe Illustrator 21.0.0, SVG Export Plug-In . SVG Version: 6.00 Build 0)  -->
<svg version="1.1" id="katman_1" xmlns="http://www.w3.org/2000/svg" xmlns:xlink="http://www.w3.org/1999/xlink" x="0px" y="0px"
	 viewBox="0 0 314 74.6" style="enable-background:new 0 0 314 74.6;" xml:space="preserve">
<style type="text/css">
	.st0{fill:#764ABC;}
	.st1{enable-background:new    ;}
</style>
<g>
	<path class="st0" d="M54.4,52.1c2.9-0.3,5.1-2.8,5-5.8s-2.6-5.4-5.6-5.4h-0.2c-3.1,0.1-5.5,2.7-5.4,5.8c0.1,1.5,0.7,2.8,1.6,3.7
		c-3.4,6.7-8.6,11.6-16.4,15.7c-5.3,2.8-10.8,3.8-16.3,3.1c-4.5-0.6-8-2.6-10.2-5.9c-3.2-4.9-3.5-10.2-0.8-15.5
		c1.9-3.8,4.9-6.6,6.8-8c-0.4-1.3-1-3.5-1.3-5.1C-2.9,45.2-1.4,59.4,3,66.1c3.3,5,10,8.1,17.4,8.1c2,0,4-0.2,6-0.7
		C39.2,71,48.9,63.4,54.4,52.1z"/>
	<path class="st0" d="M72,39.7c-7.6-8.9-18.8-13.8-31.6-13.8h-1.6c-0.9-1.8-2.8-3-4.9-3h-0.2c-3.1,0.1-5.5,2.7-5.4,5.8
		c0.1,3,2.6,5.4,5.6,5.4h0.2c2.2-0.1,4.1-1.5,4.9-3.4h1.8c7.6,0,14.8,2.2,21.3,6.5c5,3.3,8.6,7.6,10.6,12.8
		c1.7,4.2,1.6,8.3-0.2,11.8C69.7,67.1,65,70,58.8,70c-4,0-7.8-1.2-9.8-2.1c-1.1,1-3.1,2.6-4.5,3.6c4.3,2,8.7,3.1,12.9,3.1
		c9.6,0,16.7-5.3,19.4-10.6C79.7,58.2,79.5,48.2,72,39.7z"/>
	<path class="st0" d="M21.2,53.8c0.1,3,2.6,5.4,5.6,5.4H27c3.1-0.1,5.5-2.7,5.4-5.8c-0.1-3-2.6-5.4-5.6-5.4h-0.2
		c-0.2,0-0.5,0-0.7,0.1c-4.1-6.8-5.8-14.2-5.2-22.2c0.4-6,2.4-11.2,5.9-15.5c2.9-3.7,8.5-5.5,12.3-5.6c10.6-0.2,15.1,13,15.4,18.3
		c1.3,0.3,3.5,1,5,1.5C58.1,8.4,48.1,0,38.5,0c-9,0-17.3,6.5-20.6,16.1c-4.6,12.8-1.6,25.1,4,34.8C21.4,51.6,21.1,52.7,21.2,53.8z"
		/>
</g>
<g class="st1">
	<path class="st0" d="M100.6,40.9h-6.8v11.9h-3.9V23.4h9.6c3.3,0,5.9,0.7,7.7,2.2c1.8,1.5,2.7,3.6,2.7,6.6c0,1.8-0.6,3.3-1.5,4.7
		s-2.4,2.4-4,3.1l6.8,12.4v0.3h-4.2L100.6,40.9z M93.8,37.7h6c2,0,3.5-0.6,4.6-1.5c1.1-1,1.7-2.4,1.7-4c0-1.8-0.6-3.2-1.7-4.2
		c-1.1-1-2.7-1.4-4.7-1.5h-5.9C93.8,26.4,93.8,37.7,93.8,37.7z"/>
	<path class="st0" d="M123.8,53.2c-2.9,0-5.3-1-7.3-2.9c-2-2-2.8-4.5-2.8-7.8v-0.7c0-2.1,0.4-4,1.3-5.7c0.8-1.7,2-3.1,3.5-4
		c1.5-1,3.1-1.4,4.9-1.4c2.8,0,5,1,6.6,2.8c1.5,1.8,2.4,4.5,2.4,8V43h-14.8c0,2.1,0.7,3.9,1.8,5.2c1.3,1.3,2.8,2,4.6,2
		c1.3,0,2.4-0.3,3.3-0.8c1-0.6,1.7-1.3,2.4-2.1l2.2,1.8C130,51.8,127.4,53.2,123.8,53.2z M123.2,33.6c-1.5,0-2.8,0.6-3.8,1.7
		c-1,1.1-1.7,2.7-2,4.6h10.9v-0.3c-0.1-2-0.6-3.3-1.5-4.3C126,34.2,124.7,33.6,123.2,33.6z"/>
	<path class="st0" d="M150,52.7c-0.3-0.4-0.4-1.3-0.6-2.2c-1.7,1.8-3.8,2.7-6.1,2.7c-2.1,0-3.9-0.6-5.3-1.8
		c-1.4-1.3-2.1-2.8-2.1-4.6c0-2.2,0.8-4,2.7-5.3c1.7-1.3,4.2-1.8,7.3-1.8h3.6v-1.7c0-1.3-0.4-2.4-1.1-3.1c-0.8-0.8-2-1.1-3.5-1.1
		c-1.4,0-2.4,0.3-3.3,1c-0.8,0.7-1.4,1.5-1.4,2.4h-3.8c0-1.1,0.4-2.1,1.1-3.2s1.8-1.8,3.1-2.4c1.3-0.6,2.8-0.8,4.3-0.8
		c2.5,0,4.5,0.6,5.9,1.8c1.4,1.3,2.1,2.9,2.2,5.2v10c0,2,0.3,3.6,0.7,4.7v0.3H150z M143.7,49.9c1.1,0,2.2-0.3,3.3-0.8
		s1.8-1.4,2.2-2.4v-4.5h-2.9c-4.6,0-6.8,1.4-6.8,4c0,1.1,0.4,2.1,1.1,2.8C141.5,49.5,142.4,49.9,143.7,49.9z"/>
	<path class="st0" d="M167.6,50.1c1.4,0,2.5-0.4,3.5-1.3c1-0.8,1.5-1.8,1.7-3.1h3.5c0,1.3-0.6,2.4-1.3,3.6c-0.7,1.3-1.8,2.1-3.2,2.7
		c-1.4,0.6-2.7,1-4.2,1c-2.9,0-5.3-1-7.1-2.9c-1.8-2-2.7-4.7-2.7-8.1v-0.6c0-2.1,0.4-4,1.1-5.7c0.8-1.7,2-2.9,3.3-3.9
		c1.4-1,3.2-1.4,5.2-1.4c2.4,0,4.5,0.7,6.1,2.2c1.7,1.4,2.5,3.3,2.7,5.7h-3.5c-0.1-1.4-0.7-2.5-1.5-3.5c-1-0.8-2.1-1.4-3.5-1.4
		c-2,0-3.3,0.7-4.5,2.1c-1.1,1.4-1.5,3.3-1.5,5.9v0.7c0,2.5,0.6,4.5,1.5,5.9C164.2,49.4,165.7,50.1,167.6,50.1z"/>
	<path class="st0" d="M185.6,25.7V31h4v2.9h-4v13.5c0,0.8,0.1,1.5,0.6,2c0.4,0.4,1,0.7,1.8,0.7c0.4,0,1-0.1,1.8-0.3v2.9
		c-1,0.3-2,0.4-2.8,0.4c-1.7,0-2.9-0.6-3.8-1.5c-0.8-1-1.3-2.4-1.3-4.3V33.8H178v-2.9h3.9v-5.3h3.6V25.7z"/>
	<path class="st0" d="M215.4,40.9h-6.8v11.9h-3.9V23.4h9.6c3.3,0,5.9,0.7,7.7,2.2c1.8,1.5,2.7,3.6,2.7,6.6c0,1.8-0.6,3.3-1.5,4.7
		c-1,1.4-2.4,2.4-4,3.1l6.8,12.4v0.3h-4.2L215.4,40.9z M208.6,37.7h6c2,0,3.5-0.6,4.6-1.5c1.1-1,1.7-2.4,1.7-4
		c0-1.8-0.6-3.2-1.7-4.2c-1.1-1-2.7-1.4-4.7-1.5h-5.9L208.6,37.7L208.6,37.7z"/>
	<path class="st0" d="M238.4,53.2c-2.9,0-5.3-1-7.3-2.9s-2.8-4.5-2.8-7.8v-0.7c0-2.1,0.4-4,1.3-5.7c0.8-1.7,2-3.1,3.5-4
		c1.5-1,3.1-1.4,4.9-1.4c2.8,0,5,1,6.6,2.8c1.5,1.8,2.4,4.5,2.4,8V43h-14.8c0,2.1,0.7,3.9,1.8,5.2c1.3,1.3,2.8,2,4.6,2
		c1.3,0,2.4-0.3,3.3-0.8c1-0.6,1.7-1.3,2.4-2.1l2.2,1.8C244.9,51.8,242.2,53.2,238.4,53.2z M238,33.6c-1.5,0-2.8,0.6-3.8,1.7
		c-1,1.1-1.7,2.7-2,4.6h10.9v-0.3c-0.1-2-0.6-3.3-1.5-4.3C240.7,34.3,239.5,33.6,238,33.6z"/>
	<path class="st0" d="M250.4,41.7c0-3.3,0.8-6,2.4-8.1c1.5-2.1,3.6-3.1,6.3-3.1c2.5,0,4.6,0.8,6,2.7V21.9h3.8v30.8h-3.5l-0.1-2.4
		c-1.5,1.8-3.6,2.8-6.3,2.8c-2.5,0-4.6-1-6.1-3.1c-1.5-2.1-2.4-4.7-2.4-8.1V41.7z M254.1,42.1c0,2.5,0.6,4.5,1.5,5.9
		c1,1.4,2.4,2.1,4.2,2.1c2.4,0,4-1.1,5.2-3.2v-10c-1.1-2.1-2.8-3.1-5.2-3.1c-1.8,0-3.2,0.7-4.3,2.1
		C254.6,37.2,254.1,39.3,254.1,42.1z"/>
	<path class="st0" d="M288,50.5c-1.4,1.7-3.6,2.5-6.4,2.5c-2.4,0-4-0.7-5.3-2c-1.3-1.3-1.8-3.3-1.8-6V31h3.8v14.1
		c0,3.3,1.4,4.9,4,4.9c2.8,0,4.7-1.1,5.7-3.2V31h3.8v21.8h-3.5L288,50.5z"/>
	<path class="st0" d="M304.6,38.9l4.9-8h4.3l-7.1,10.7l7.4,11h-4.3l-5-8.1l-5,8.1h-4.5l7.4-11L295.5,31h4.3L304.6,38.9z"/>
</g>
</svg>
