<?xml version="1.0" encoding="utf-8"?>
<!-- Generator: Adobe Illustrator 21.0.0, SVG Export Plug-In . SVG Version: 6.00 Build 0)  -->
<svg version="1.1" id="Layer_1" xmlns="http://www.w3.org/2000/svg" xmlns:xlink="http://www.w3.org/1999/xlink" x="0px" y="0px"
	 viewBox="0 0 98.2 60.7" style="enable-background:new 0 0 98.2 60.7;" xml:space="preserve">
<style type="text/css">
	.st0{fill:url(#path12339_1_);}
	.st1{fill:url(#path12367_1_);}
	.st2{fill:#14559A;}
	.st3{fill:url(#path12459_1_);}
	.st4{fill:#3092C4;}
	.st5{fill:#1969BC;}
	.st6{fill:url(#path12553_1_);}
	.st7{fill:url(#path12581_1_);}
	.st8{fill:url(#path12651_1_);}
	.st9{fill:#2B74B1;}
	.st10{fill:#125A9E;}
	.st11{fill:url(#path12741_1_);}
	.st12{fill:url(#path12803_1_);}
	.st13{fill:#0D82CA;}
	.st14{fill:url(#path12831_1_);}
	.st15{fill:#127BCA;}
	.st16{fill:url(#path12923_1_);}
	.st17{fill:url(#path12949_1_);}
	.st18{fill:#05A1E6;}
	.st19{fill:url(#path12981_1_);}
	.st20{fill:url(#path13003_1_);}
	.st21{fill:url(#path13093_1_);}
	.st22{fill:#079AE1;}
	.st23{fill:#1E5CB3;}
	.st24{fill:#1D60B5;}
	.st25{fill:#175FAB;}
	.st26{fill:url(#path13139_1_);}
	.st27{fill:#7DCBEC;}
	.st28{fill:#5EC5ED;}
	.st29{fill:url(#path13245_1_);}
	.st30{fill:url(#path13255_1_);}
	.st31{fill:url(#path13333_1_);}
</style>
<g>
	<g>
		<path id="path12299" d="M2.8,59.3c0,0.4-0.1,0.7-0.4,1s-0.6,0.4-1,0.4s-0.7-0.1-1-0.4S0,59.7,0,59.3s0.1-0.7,0.4-1s0.6-0.4,1-0.4
			s0.7,0.1,1,0.4C2.7,58.6,2.8,58.9,2.8,59.3"/>
		<path id="path12303" d="M20.8,60.5h-2.6L8.7,45.8c-0.2-0.3-0.4-0.7-0.6-1.1H8c0.1,0.4,0.1,1.2,0.1,2.5v13.3H6V42.1h2.8L18,56.5
			c0.4,0.6,0.6,1,0.7,1.2h0.1c-0.1-0.5-0.1-1.4-0.1-2.7V42.1h2.1V60.5L20.8,60.5z"/>
		<path id="path12307" d="M34.6,60.5h-9.7V42.1h9.2v2h-7.2v6.1h6.6v2h-6.6v6.4h7.6L34.6,60.5z"/>
		<path id="path12311" d="M49.3,44.1H44v16.4h-2.2V44.1h-5.3v-2h12.7L49.3,44.1L49.3,44.1z"/>
	</g>
	<g>
		<path id="path12245" d="M81.9,33.6h-0.8v2.5h-0.3v-2.6H80v-0.3h2L81.9,33.6z"/>
		<path id="path12257" d="M85.3,36.1H85v-1.9c0-0.1,0-0.3,0-0.6l0,0c0,0.1-0.1,0.2-0.1,0.3l-1,2.2h-0.2l-1-2.2
			c0-0.1-0.1-0.1-0.1-0.3l0,0c0,0.1,0,0.3,0,0.6v1.9h-0.3v-2.9h0.4l0.9,2c0.1,0.1,0.1,0.3,0.1,0.4l0,0c0.1-0.1,0.1-0.3,0.1-0.4
			l0.9-2h0.4L85.3,36.1L85.3,36.1z"/>
		
			<linearGradient id="path12339_1_" gradientUnits="userSpaceOnUse" x1="-946.9921" y1="1424.9474" x2="-945.8287" y2="1424.9474" gradientTransform="matrix(0 38.1004 38.1004 0 -54245.7148 36081.3477)">
			<stop  offset="0" style="stop-color:#0994DC"/>
			<stop  offset="0.35" style="stop-color:#66CEF5"/>
			<stop  offset="0.35" style="stop-color:#66CEF5"/>
			<stop  offset="0.8462" style="stop-color:#127BCA"/>
			<stop  offset="0.8462" style="stop-color:#127BCA"/>
			<stop  offset="1" style="stop-color:#127BCA"/>
		</linearGradient>
		<path id="path12339" class="st0" d="M37,7.6c3.4,10.2,4.7,28.5,14.5,28.5l0,0c0.7,0,1.5-0.1,2.2-0.2l0,0
			c-8.9-2.1-9.9-20.2-15.4-29.5l0,0C37.9,6.8,37.5,7.2,37,7.6"/>
		
			<linearGradient id="path12367_1_" gradientUnits="userSpaceOnUse" x1="-947.4412" y1="1424.8861" x2="-946.2778" y2="1424.8861" gradientTransform="matrix(0 39.0714 39.0714 0 -55625.2422 37017.2969)">
			<stop  offset="0" style="stop-color:#0E76BC"/>
			<stop  offset="0.36" style="stop-color:#36AEE8"/>
			<stop  offset="0.36" style="stop-color:#36AEE8"/>
			<stop  offset="0.8462" style="stop-color:#00ADEF"/>
			<stop  offset="0.8462" style="stop-color:#00ADEF"/>
			<stop  offset="1" style="stop-color:#00ADEF"/>
		</linearGradient>
		<path id="path12367" class="st1" d="M38.3,6.4c5.4,9.4,6.5,27.4,15.4,29.5l0,0c0.7-0.1,1.4-0.3,2.1-0.6l0,0
			c-8-3.9-10.2-21.5-16.4-29.9l0,0C39,5.7,38.7,6,38.3,6.4"/>
		<path id="path12379" class="st2" d="M46.1,0.8c-0.7,0-1.5,0.1-2.2,0.2c-2,0.4-4,1.2-6,2.5C38.5,4,39,4.7,39.5,5.4
			c2.1-1.7,4.1-3,6.2-3.7C46.5,1.4,47.2,1.2,48,1C47.3,0.9,46.7,0.8,46.1,0.8"/>
		
			<linearGradient id="path12459_1_" gradientUnits="userSpaceOnUse" x1="-987.0027" y1="1418.8743" x2="-985.8394" y2="1418.8743" gradientTransform="matrix(0 -31.0885 -31.0885 0 44166.8711 -30649.4082)">
			<stop  offset="0" style="stop-color:#1C63B7"/>
			<stop  offset="0.5" style="stop-color:#33BDF2"/>
			<stop  offset="1" style="stop-color:#33BDF2;stop-opacity:0.4196"/>
		</linearGradient>
		<path id="path12459" class="st3" d="M62,31.7c0.8-0.7,1.6-1.4,2.5-2.2C61.1,19.4,59.9,0.8,50,0.8c-0.7,0-1.4,0.1-2.1,0.2
			C56.9,3.3,58,22.8,62,31.7"/>
		<path id="path12521" class="st4" d="M47.9,1c-0.6-0.1-1.1-0.2-1.7-0.2h3.9C49.3,0.8,48.6,0.9,47.9,1"/>
		<path id="path12525" class="st5" d="M61.9,33.9c-0.4-0.4-0.7-0.8-1.1-1.2c-1.7,1.2-3.3,2.1-4.9,2.6c0.6,0.3,1.2,0.5,1.8,0.6
			c0.5,0.1,1,0.1,1.6,0.1c1.8,0,3.3-0.2,4.5-0.8C63.1,34.9,62.4,34.4,61.9,33.9"/>
		
			<linearGradient id="path12553_1_" gradientUnits="userSpaceOnUse" x1="-948.1004" y1="1424.8136" x2="-946.937" y2="1424.8136" gradientTransform="matrix(0 40.5662 40.5662 0 -57745.4219 38455.6914)">
			<stop  offset="0" style="stop-color:#166AB8"/>
			<stop  offset="0.4" style="stop-color:#36AEE8"/>
			<stop  offset="0.4" style="stop-color:#36AEE8"/>
			<stop  offset="0.8462" style="stop-color:#0798DD"/>
			<stop  offset="0.8462" style="stop-color:#0798DD"/>
			<stop  offset="1" style="stop-color:#0798DD"/>
		</linearGradient>
		<path id="path12553" class="st6" d="M45.6,1.7c8.1,4.2,8.7,23.3,15.2,31l0,0c0.4-0.3,0.9-0.6,1.3-1l0,0c-4-8.9-5.2-28.4-14.2-30.7
			l0,0C47.1,1.2,46.4,1.4,45.6,1.7"/>
		
			<linearGradient id="path12581_1_" gradientUnits="userSpaceOnUse" x1="-949.1006" y1="1424.6459" x2="-947.9374" y2="1424.6459" gradientTransform="matrix(0 43.1368 43.1368 0 -61404.6094 40936.2578)">
			<stop  offset="0" style="stop-color:#124379"/>
			<stop  offset="0.39" style="stop-color:#1487CB"/>
			<stop  offset="0.39" style="stop-color:#1487CB"/>
			<stop  offset="0.7802" style="stop-color:#165197"/>
			<stop  offset="0.7802" style="stop-color:#165197"/>
			<stop  offset="1" style="stop-color:#165197"/>
		</linearGradient>
		<path id="path12581" class="st7" d="M39.4,5.4c6.2,8.4,8.4,26,16.4,29.9l0,0c1.6-0.6,3.3-1.5,4.9-2.6l0,0
			c-6.4-7.7-7.1-26.8-15.2-31l0,0C43.5,2.4,41.5,3.7,39.4,5.4"/>
		
			<linearGradient id="path12651_1_" gradientUnits="userSpaceOnUse" x1="92.103" y1="-1312.1077" x2="99.0123" y2="-1312.1077" gradientTransform="matrix(1.0276 0 0 -1.0276 -64.7139 -1337.7719)">
			<stop  offset="0" style="stop-color:#33BDF2;stop-opacity:0.698"/>
			<stop  offset="1" style="stop-color:#1DACD8"/>
		</linearGradient>
		<path id="path12651" class="st8" d="M33.1,7.4c-1,2.2-2,5.1-3.1,8.8c2.4-3.3,4.7-6.2,7.1-8.6c-0.3-1-0.7-1.9-1-2.7
			C35,5.6,34,6.4,33.1,7.4"/>
		<path id="path12655" class="st9" d="M36.8,4.2c-0.3,0.2-0.6,0.4-0.9,0.6c0.4,0.8,0.7,1.7,1,2.7c0.4-0.4,0.9-0.8,1.3-1.2
			C37.8,5.6,37.4,4.9,36.8,4.2"/>
		<path id="path12659" class="st10" d="M37.9,3.5c-0.3,0.2-0.7,0.4-1,0.7c0.5,0.7,1,1.4,1.5,2.2c0.4-0.3,0.7-0.7,1.1-1
			C38.9,4.7,38.4,4.1,37.9,3.5"/>
		
			<linearGradient id="path12741_1_" gradientUnits="userSpaceOnUse" x1="-987.5852" y1="1418.6592" x2="-986.4218" y2="1418.6592" gradientTransform="matrix(0 -30.2846 -30.2846 0 43046.6758 -29874.4355)">
			<stop  offset="0" style="stop-color:#136AB4"/>
			<stop  offset="0.6" style="stop-color:#59CAF5;stop-opacity:0.549"/>
			<stop  offset="1" style="stop-color:#59CAF5;stop-opacity:0.2353"/>
		</linearGradient>
		<path id="path12741" class="st11" d="M92.7,0c-4.6,17.6-14.1,31.6-22,35.2l0,0c-0.1,0.1-0.3,0.1-0.4,0.2c0,0,0,0-0.1,0
			c0,0-0.1,0-0.1,0.1c0,0,0,0-0.1,0s-0.1,0-0.2,0.1h-0.1h-0.1h-0.1h-0.1c-0.1,0-0.1,0-0.2,0.1h-0.1H69h-0.1h-0.1c-0.1,0-0.1,0-0.1,0
			c0.4,0.1,0.7,0.2,1.2,0.2c7.5,0.2,15.2-13.3,27.7-35.8L92.7,0L92.7,0z"/>
		
			<linearGradient id="path12803_1_" gradientUnits="userSpaceOnUse" x1="67.5876" y1="-1320.428" x2="93.1812" y2="-1320.428" gradientTransform="matrix(1.0276 0 0 -1.0276 -64.7139 -1337.7719)">
			<stop  offset="0" style="stop-color:#05A1E6;stop-opacity:0.2471"/>
			<stop  offset="1" style="stop-color:#05A1E6"/>
		</linearGradient>
		<path id="path12803" class="st12" d="M28.3,1.5L28.3,1.5L28.3,1.5L28.3,1.5c0.1,0,0.1-0.1,0.1-0.1l0,0l0,0c0.1,0,0.1,0,0.1-0.1
			l0,0c0.1,0,0.2-0.1,0.3-0.1l0,0h0.1c0,0,0,0,0.1,0h0.1c0,0,0,0,0.1,0s0.3-0.1,0.4-0.1c0,0,0,0,0.1,0h0.1c0,0,0,0,0.1,0H30l0,0
			c0.1,0,0.2,0,0.3-0.1c0,0,0,0,0.1,0h0.1h0.1h0.1c0,0,0,0,0.1,0s0.2,0,0.3,0c-0.3,0-0.5,0-0.8,0C21.8,1,10.1,16.8,4.8,37.2
			c0,0,0.4,0,1,0c1.7-3,3.2-5.9,4.6-8.6C14.1,14,21.6,4.1,28.3,1.5"/>
		<path id="path12807" class="st13" d="M33.1,7.4c1-0.9,1.9-1.7,2.9-2.5c-0.2-0.5-0.4-0.9-0.7-1.3C34.5,4.5,33.8,5.7,33.1,7.4"/>
		<path id="path12811" class="st13" d="M33.8,1.6c0.6,0.5,1.1,1.1,1.5,1.9c0.1-0.2,0.3-0.3,0.4-0.5C35.1,2.4,34.4,1.9,33.8,1.6
			C33.7,1.6,33.7,1.6,33.8,1.6L33.8,1.6"/>
		
			<linearGradient id="path12831_1_" gradientUnits="userSpaceOnUse" x1="-987.0595" y1="1419.0287" x2="-985.8961" y2="1419.0287" gradientTransform="matrix(0 -31.009 -31.009 0 44022.0117 -30572.627)">
			<stop  offset="0" style="stop-color:#318ED5"/>
			<stop  offset="1" style="stop-color:#38A7E4"/>
		</linearGradient>
		<path id="path12831" class="st14" d="M10.4,28.5c7.7-15,11.4-24.4,17.9-27l0,0C21.6,4.1,14.1,14,10.4,28.5"/>
		<path id="path12843" class="st15" d="M35.7,3c-0.1,0.1-0.3,0.3-0.4,0.5c0.2,0.4,0.5,0.9,0.7,1.3c0.3-0.2,0.6-0.4,0.9-0.6
			C36.5,3.8,36.1,3.4,35.7,3"/>
		
			<linearGradient id="path12923_1_" gradientUnits="userSpaceOnUse" x1="-987.697" y1="1418.9244" x2="-986.5336" y2="1418.9244" gradientTransform="matrix(0 -30.1424 -30.1424 0 42791.4883 -29736.3652)">
			<stop  offset="0" style="stop-color:#05A1E6"/>
			<stop  offset="1" style="stop-color:#05A1E6;stop-opacity:0.549"/>
		</linearGradient>
		<path id="path12923" class="st16" d="M13.9,37L13.9,37c-0.1,0-0.1,0-0.1,0l0,0h-0.1l0,0c-0.1,0-0.2,0-0.3,0l0,0
			c7.8-0.2,11.5-4.1,13.2-9.9c1.4-4.3,2.5-8,3.4-11c-3.3,4.6-6.6,10.2-9.9,16.3C18.4,35.4,16,36.7,13.9,37"/>
		
			<linearGradient id="path12949_1_" gradientUnits="userSpaceOnUse" x1="-991.8876" y1="1418.3114" x2="-990.723" y2="1418.3114" gradientTransform="matrix(0 -25.4708 -25.4708 0 36148.9766 -25227.2031)">
			<stop  offset="0" style="stop-color:#1959A6"/>
			<stop  offset="0.5" style="stop-color:#05A1E6"/>
			<stop  offset="0.5" style="stop-color:#05A1E6"/>
			<stop  offset="0.9176" style="stop-color:#7EC5EA"/>
			<stop  offset="1" style="stop-color:#7EC5EA"/>
		</linearGradient>
		<path id="path12949" class="st17" d="M13.9,37L13.9,37c2.1-0.3,4.5-1.5,6.1-4.5l0,0c3.3-6.2,6.6-11.7,9.9-16.3l0,0
			c1.2-3.8,2.2-6.6,3.1-8.8l0,0C26.5,13.6,20,23.9,13.9,37"/>
		<path id="path12961" class="st18" d="M10.4,28.5C9,31.2,7.5,34,5.8,37.1c0.7,0,1.8,0,3,0C9.1,34.1,9.7,31.2,10.4,28.5"/>
		
			<linearGradient id="path12981_1_" gradientUnits="userSpaceOnUse" x1="-989.6511" y1="1422.9783" x2="-988.4861" y2="1422.9783" gradientTransform="matrix(-4.8697 -27.6175 -27.6175 4.8697 34504.3359 -34226.1133)">
			<stop  offset="0" style="stop-color:#165096"/>
			<stop  offset="1" style="stop-color:#0D82CA"/>
		</linearGradient>
		<path id="path12981" class="st19" d="M30.8,0.9L30.8,0.9L30.8,0.9c-0.1,0-0.1,0-0.2,0l0,0c0,0,0,0-0.1,0l0,0h-0.1l0,0
			c0,0,0,0-0.1,0l0,0c-0.1,0-0.2,0-0.3,0l0,0l0,0l0,0h-0.1l0,0c0,0,0,0-0.1,0l0,0h-0.1l0,0c0,0,0,0-0.1,0l0,0
			c-0.1,0-0.3,0.1-0.4,0.1l0,0c0,0,0,0-0.1,0l0,0H29l0,0c0,0,0,0-0.1,0l0,0h-0.1l0,0c0,0,0,0-0.1,0l0,0c-0.1,0-0.2,0.1-0.3,0.1l0,0
			l0,0l0,0c0,0-0.1,0-0.1,0.1l0,0c0,0,0,0-0.1,0l0,0c0,0-0.1,0-0.1,0.1l0,0l0,0l0,0c-6.5,2.6-10.2,12-17.9,27l0,0
			C9.5,31,9,33.8,8.6,36.8l0,0H9c1.2,0,1.5,0,2.8,0l0,0h0.3h0.2h0.1l0,0h0.1l0,0l0,0h0.1h0.2H13h0.1l0,0c0.1,0,0.2,0,0.2,0l0,0
			c0.1,0,0.2,0,0.3,0l0,0l0,0l0,0h0.1l0,0l0,0l0,0h0.1l0,0l0,0c6.1-13,12.6-23.4,19.2-29.6l0,0c0.7-1.6,1.4-2.9,2.2-3.8l0,0
			c-0.4-0.8-0.9-1.4-1.5-1.9l0,0l0,0l0,0h-0.1l0,0c0,0-0.1,0-0.1-0.1l0,0h-0.1l0,0h-0.1l0,0h-0.1l0,0c-0.1,0-0.1-0.1-0.2-0.1l0,0
			h-0.1l0,0c0,0-0.1,0-0.1-0.1l0,0h-0.1l0,0c-0.1,0-0.1,0-0.2-0.1l0,0l0,0l0,0c-0.1,0-0.1,0-0.2-0.1l0,0c0,0,0,0-0.1,0l0,0
			c-0.1,0-0.1,0-0.2-0.1l0,0l0,0l0,0c-0.1,0-0.3-0.1-0.4-0.1l0,0c0,0,0,0-0.1,0l0,0c-0.1,0-0.1,0-0.2,0l0,0l0,0l0,0
			c-0.1,0-0.1,0-0.2,0l0,0l0,0l0,0c-0.1,0-0.1,0-0.2,0l0,0C31,0.9,30.9,0.9,30.8,0.9"/>
		
			<linearGradient id="path13003_1_" gradientUnits="userSpaceOnUse" x1="-1012.3334" y1="1414.7836" x2="-1011.17" y2="1414.7836" gradientTransform="matrix(0 -14.4327 -14.4327 0 20496.3477 -14593.8164)">
			<stop  offset="0" style="stop-color:#05A1E6"/>
			<stop  offset="0.8736" style="stop-color:#0495D6"/>
			<stop  offset="1" style="stop-color:#0495D6"/>
		</linearGradient>
		<path id="path13003" class="st20" d="M75,9.7c-1.5,4.8-2.7,8.7-3.8,12l0,0c4.1-5.6,8.1-12.7,12-20.9l0,0C78.7,2.2,76.3,5.4,75,9.7
			"/>
		
			<linearGradient id="path13093_1_" gradientUnits="userSpaceOnUse" x1="-945.584" y1="1428.9114" x2="-944.4206" y2="1428.9114" gradientTransform="matrix(-5.8684 33.2811 33.2811 5.8684 -53019.7539 23083.2383)">
			<stop  offset="0" style="stop-color:#38A7E4;stop-opacity:0.3294"/>
			<stop  offset="0.9615" style="stop-color:#0E88D3"/>
			<stop  offset="0.9615" style="stop-color:#0E88D3"/>
			<stop  offset="1" style="stop-color:#0E88D3"/>
		</linearGradient>
		<path id="path13093" class="st21" d="M71.3,34.9c-0.2,0.2-0.4,0.2-0.6,0.3c8-3.6,17.5-17.6,22-35.2h-0.9
			C81.4,18.7,78,31.2,71.3,34.9"/>
		<path id="path13097" class="st22" d="M66.1,33.4c1.7-2.1,3.1-5.7,5.1-11.6c-2.2,3-4.5,5.7-6.7,7.8l0,0C65,31,65.5,32.3,66.1,33.4"
			/>
		<path id="path13101" class="st5" d="M66.1,33.4c-0.6,0.7-1.2,1.3-1.9,1.7c-0.1,0.1-0.3,0.2-0.5,0.2c0.7,0.4,1.5,0.7,2.4,0.8l0,0
			l0,0c0.1,0,0.3,0,0.4,0l0,0c0.1,0,0.1,0,0.2,0l0,0c0.1,0,0.1,0,0.2,0s0.1,0,0.2,0c0,0,0,0,0.1,0s0.1,0,0.1,0h0.1
			c0.1,0,0.1,0,0.1,0l0,0c0,0,0,0,0.1,0s0.1,0,0.1,0l0,0c0,0,0,0,0.1,0s0.1,0,0.2,0c0,0,0,0,0.1,0s0.1,0,0.2,0l0,0l0,0
			c0.1,0,0.2-0.1,0.4-0.1C67.7,35.5,66.9,34.6,66.1,33.4"/>
		<path id="path13105" class="st23" d="M51.5,36.1c0.7,0,1.5-0.1,2.2-0.2c0.7-0.1,1.4-0.3,2.1-0.6c0.6,0.3,1.2,0.5,1.8,0.6
			c0.5,0.1,1,0.1,1.6,0.1L51.5,36.1z"/>
		<path id="path13109" class="st23" d="M59.2,36.1c1.8,0,3.3-0.2,4.5-0.8c0.7,0.4,1.5,0.7,2.4,0.8l0,0l0,0c0.1,0,0.3,0,0.4,0l0,0
			c0.1,0,0.1,0,0.2,0l0,0c0.1,0,0.1,0,0.2,0H59.2L59.2,36.1z"/>
		<path id="path13113" class="st24" d="M67,36.1c0.1,0,0.1,0,0.2,0c0,0,0,0,0.1,0s0.1,0,0.1,0h0.1c0.1,0,0.1,0,0.1,0l0,0
			c0,0,0,0,0.1,0s0.1,0,0.1,0l0,0c0,0,0,0,0.1,0s0.1,0,0.2,0c0,0,0,0,0.1,0s0.1,0,0.2,0l0,0l0,0c0.1,0,0.2-0.1,0.4-0.1l0,0
			c0.4,0.1,0.7,0.2,1.2,0.2L67,36.1L67,36.1z"/>
		<path id="path13117" class="st25" d="M64.5,29.6L64.5,29.6c-0.8,0.8-1.6,1.5-2.5,2.1c-0.4,0.3-0.9,0.7-1.3,1
			c0.4,0.4,0.7,0.8,1.1,1.2c0.6,0.6,1.2,1,1.9,1.4c0.1-0.1,0.3-0.1,0.5-0.2c0.7-0.4,1.3-0.9,1.9-1.7C65.5,32.3,65,31,64.5,29.6"/>
		
			<linearGradient id="path13139_1_" gradientUnits="userSpaceOnUse" x1="-943.2333" y1="1425.6648" x2="-942.0699" y2="1425.6648" gradientTransform="matrix(0 31.4866 31.4866 0 -44810.4375 29699.1582)">
			<stop  offset="0" style="stop-color:#168CD4"/>
			<stop  offset="0.5" style="stop-color:#1C87CC"/>
			<stop  offset="1" style="stop-color:#154B8D"/>
		</linearGradient>
		<path id="path13139" class="st26" d="M88.9,0H85c-0.1,0-0.3,0-0.4,0l0,0c-0.1,0-0.2,0-0.4,0l0,0l0,0c-0.2,0-0.5,0-0.7,0l0,0
			c-0.1,0.2-0.2,0.5-0.4,0.7l0,0c-3.8,8.2-7.9,15.3-12,20.9l0,0c-1.9,5.9-3.3,9.5-5.1,11.6l0,0c0.7,1.3,1.6,2.2,2.6,2.5l0,0h0.1l0,0
			l0,0l0,0c0,0,0,0,0.1,0l0,0h0.1l0,0H69l0,0h0.1l0,0h0.1l0,0c0.1,0,0.1,0,0.2-0.1l0,0h0.1l0,0h0.1l0,0h0.1l0,0h0.1l0,0
			c0.1,0,0.1,0,0.2-0.1l0,0c0,0,0,0,0.1,0l0,0c0,0,0.1,0,0.1-0.1l0,0c0,0,0,0,0.1,0l0,0c0.1-0.1,0.3-0.1,0.4-0.2l0,0l0,0l0,0
			c0.2-0.1,0.4-0.2,0.6-0.3l0,0C78,31.2,81.3,18.7,91.8,0l0,0L88.9,0L88.9,0z"/>
		<path id="path13231" class="st27" d="M31.1,0.8L31.1,0.8c0.1,0,0.1,0,0.2,0s0,0,0,0c0.1,0,0.1,0,0.2,0l0,0c0.1,0,0.1,0,0.2,0
			c0,0,0,0,0.1,0s0.3,0.1,0.4,0.1l0,0c0.1,0,0.1,0,0.2,0.1c0,0,0,0,0.1,0s0.1,0,0.2,0.1l0,0c0.1,0,0.1,0,0.2,0.1H33
			c0,0,0.1,0,0.1,0.1h0.1c0.1,0,0.1,0.1,0.2,0.1h0.1h0.1h0.1c0,0,0.1,0,0.1,0.1c0.7,0.4,1.4,0.9,2,1.5c0.2-0.2,0.5-0.5,0.7-0.7
			c-1.4-1-3-1.5-4.8-1.5C31.5,0.8,31.3,0.8,31.1,0.8"/>
		<path id="path13235" class="st28" d="M35.7,3c0.4,0.4,0.8,0.8,1.1,1.2c0.3-0.2,0.7-0.5,1-0.7c-0.4-0.4-0.9-0.8-1.4-1.2
			C36.2,2.6,36,2.8,35.7,3"/>
		<g id="g13243" transform="matrix(5.0481458,0,0,-5.0481458,-9064.2597,2270.6096)">
			
				<linearGradient id="path13245_1_" gradientUnits="userSpaceOnUse" x1="2177.2166" y1="468.5001" x2="2178.3799" y2="468.5001" gradientTransform="matrix(184.8273 -76.6606 -76.6606 -184.8273 -364691.5625 253948.3594)">
				<stop  offset="0" style="stop-color:#97D6EE"/>
				<stop  offset="0.7033" style="stop-color:#55C1EA"/>
				<stop  offset="1" style="stop-color:#55C1EA"/>
			</linearGradient>
			<path id="path13245" class="st29" d="M1801.7,449.6L1801.7,449.6c0.5,0,0.8-0.1,1-0.3c0.3,0.2,0.7,0.3,1.1,0.3h-2.3
				C1801.6,449.6,1801.6,449.6,1801.7,449.6"/>
		</g>
		<g id="g13253" transform="matrix(5.0481458,0,0,-5.0481458,-9064.2597,2270.6096)">
			
				<linearGradient id="path13255_1_" gradientUnits="userSpaceOnUse" x1="2176.6316" y1="468.7347" x2="2177.7949" y2="468.7347" gradientTransform="matrix(145.9762 66.1761 66.1761 -145.9762 -346952.5312 -75167.8125)">
				<stop  offset="0" style="stop-color:#7ACCEC"/>
				<stop  offset="1" style="stop-color:#3FB7ED"/>
			</linearGradient>
			<path id="path13255" class="st30" d="M1803.9,449.6c-0.5,0-0.8-0.1-1.1-0.3c0.1-0.1,0.2-0.1,0.3-0.2c0.4,0.3,0.8,0.4,1.2,0.5
				c0.1,0,0.3,0,0.4,0H1803.9L1803.9,449.6z"/>
		</g>
		
			<linearGradient id="path13333_1_" gradientUnits="userSpaceOnUse" x1="-942.739" y1="1425.7224" x2="-941.5756" y2="1425.7224" gradientTransform="matrix(0 30.7971 30.7971 0 -43834.0156 29035.5586)">
			<stop  offset="0" style="stop-color:#1DA7E7"/>
			<stop  offset="1" style="stop-color:#37ABE7;stop-opacity:0"/>
		</linearGradient>
		<path id="path13333" class="st31" d="M71.2,21.7c1.1-3.3,2.2-7.2,3.8-12c1.4-4.3,3.7-7.5,8.2-8.9c0.1-0.2,0.2-0.5,0.4-0.7
			c-7.3,0.4-10.7,4.1-12.4,9.7c-3,9.6-4.8,15.8-6.6,19.8C66.7,27.4,69,24.8,71.2,21.7"/>
	</g>
	<g>
		<path d="M68.7,53.7c-0.1-2.2-0.3-4.8-0.2-6.8h-0.1c-0.5,1.8-1.2,3.8-2,6l-2.8,7.6h-1.5L59.6,53c-0.7-2.2-1.4-4.2-1.8-6.1h-0.1
			c-0.1,2-0.1,4.6-0.3,6.9L57,60.5h-1.9l1.1-15.7h2.6l2.7,7.6c0.7,1.9,1.2,3.6,1.6,5.3h0c0.4-1.6,0.9-3.3,1.7-5.3l2.8-7.6h2.5
			l1,15.7h-2L68.7,53.7z"/>
		<path d="M77.7,60.5l-5.1-15.7h2.2l2.5,7.7c0.7,2.1,1.2,4,1.7,5.9h0.1c0.4-1.8,1.1-3.8,1.8-5.8l2.7-7.8h2.2l-5.6,15.7
			C80.2,60.5,77.7,60.5,77.7,60.5z"/>
		<path d="M98.2,60c-0.7,0.4-2.2,0.7-4.1,0.7c-4.4,0-7.8-2.8-7.8-7.9c0-4.9,3.3-8.2,8.2-8.2c2,0,3.2,0.4,3.7,0.7L97.7,47
			c-0.8-0.4-1.9-0.7-3.2-0.7c-3.7,0-6.1,2.3-6.1,6.5c0,3.8,2.2,6.3,6,6.3c1.2,0,2.5-0.3,3.3-0.7L98.2,60z"/>
	</g>
</g>
</svg>
