<?xml version="1.0" encoding="utf-8"?>
<!-- Generator: Adobe Illustrator 21.0.0, SVG Export Plug-In . SVG Version: 6.00 Build 0)  -->
<svg version="1.1" id="Layer_1" xmlns="http://www.w3.org/2000/svg" xmlns:xlink="http://www.w3.org/1999/xlink" x="0px" y="0px"
	 viewBox="0 0 479.3 160" style="enable-background:new 0 0 479.3 160;" xml:space="preserve">
<style type="text/css">
	.st0{fill:#FF6384;}
	.st1{fill:#36A2EB;}
	.st2{fill:#FFCE56;}
	.st3{opacity:0.8;fill:#FE6184;enable-background:new    ;}
	.st4{fill:#E7E9ED;}
</style>
<g>
	<g>
		<path class="st0" d="M212.2,58.9c0.7,1.1,1.2,2.3,1.2,3.4c0,2.8-2.6,5.3-5.5,5.3c-1.4,0-2.8-0.5-4.1-1.9
			c-3.6-4.1-8.9-6.6-14.2-6.6c-12.4,0-21.8,9.6-21.8,22.9c0,13.2,9.2,22.9,21.8,22.9c5.3,0,10.5-2.3,14.2-6.5
			c1.2-1.2,2.7-1.9,4.3-1.9c2.8,0,5.3,2.4,5.3,5.1c0,1.2-0.4,2.4-1.2,3.4c-5,5.5-12.1,10-22.5,10c-18.7,0-33.4-13.3-33.4-32.9
			s14.7-33.2,33.4-33.2C200,48.8,207.3,53.2,212.2,58.9z"/>
		<path class="st0" d="M260.3,114.1c-2.8,0-5.1-2.3-5.1-5.1V84.6c0-7-3.8-9.2-9.4-9.2c-5,0-9.4,2.8-11.6,6.2v27.6
			c0,2.7-2.3,5.1-5.1,5.1c-2.8,0-5.1-2.3-5.1-5.1V54.4c0-2.7,2.3-5,5.3-5c2.7,0,5,2.3,5,5v19.4c3.1-3.6,9-7.5,16.4-7.5
			c10,0,14.8,5.3,14.8,14.7v28.2C265.7,112,263.2,114.1,260.3,114.1z"/>
		<path class="st0" d="M311.8,114.1h-0.6c-1.4,0-4.6-1.2-4.6-4.6v-0.8c-3.4,3.9-8.9,6.2-14.8,6.2c-7.5,0-16.2-5.1-16.2-15.4
			c0-10.5,8.5-15,16.2-15c6.2,0,11.6,2,14.8,5.9v-6.9c0-5.3-4.4-8.5-10.8-8.5c-4.1,0-7.7,1.1-10.9,3.6c-0.5,0.4-1.4,0.7-2,0.7
			c-1.9,0-4.1-1.5-4.1-4.1c0-0.7,0.4-1.7,0.7-2.3c3.6-4.6,12.1-6.5,17.9-6.5c10.2,0,19.3,4.3,19.3,16.7V109
			C316.9,112,314.5,114.1,311.8,114.1z M306.6,96.2c-2.3-3.1-6.5-4.6-10.9-4.6c-5.5,0-9.7,3.1-9.7,8.2c0,5,4.3,8.1,9.7,8.1
			c4.4,0,8.5-1.5,10.9-4.6V96.2z"/>
		<path class="st0" d="M348.3,76.5c-4.1,0.4-8.1,2-10.5,5.7V109c0,2.7-2.3,5.1-5.1,5.1h-0.1c-2.7,0-5-2.3-5-5.1V71.8
			c0-2.7,2.3-5,5.3-5c2.7,0,5,2.3,5,5v2.4c2.6-3.4,6.2-7.3,10.9-7.3c2.7,0,4.4,1.9,4.4,4.4C353.2,74.4,351.1,76.2,348.3,76.5z"/>
		<path class="st0" d="M377.1,114.8c-7.8,0-12-4.3-12-12V76.4h-3.8c-2.4,0-4.4-2-4.4-4.6c0-2.4,2-4.4,4.4-4.4h3.8v-8.2
			c0-2.7,2.3-5.1,5.3-5.1c2.7,0,5,2.3,5,5.1v8.2h5.7c2.4,0,4.3,2,4.3,4.6c0,2.4-1.9,4.4-4.3,4.4h-5.7v23.7c0,3.6,2,5.5,4.4,5.5
			c0.7,0,1.5-0.4,2-0.4c2.7,0,4.4,1.9,4.4,4.4C386.3,112.9,383.6,114.8,377.1,114.8z"/>
		<path class="st0" d="M399,114.7c-3.8,0-6.9-3.1-6.9-6.9c0-3.8,3.1-6.9,6.9-6.9c3.8,0,6.9,3.1,6.9,6.9
			C405.7,111.6,402.8,114.7,399,114.7z"/>
		<path class="st0" d="M415.9,132.5c-5.9,0-10.5-1.5-10.5-5.3c0-2.3,1.9-4.1,4.1-4.1c1.4,0,2.6,1.1,4.7,1.1c3.9,0,6.9-2.4,6.9-7.8
			V71.9c0-2.7,2.3-5,5.3-5c2.7,0,5,2.3,5,5v44.2C431.5,126.1,426.1,132.5,415.9,132.5z M432.4,55.6c0,3.6-2.8,6.3-6.3,6.3
			c-3.4,0-6.3-2.7-6.3-6.3c0-3.4,2.8-6.2,6.3-6.2C429.6,49.4,432.4,52,432.4,55.6z"/>
		<path class="st0" d="M460.1,114.8c-6.2,0-14.5-1.9-18.1-5.9c-0.5-0.7-1.1-1.5-1.1-2.6c0-2.4,2-4.3,4.4-4.3c0.7,0,1.7,0.1,2.3,0.7
			c3.6,2.4,8.4,4.1,12.7,4.1c5.9,0,9-2.6,9-6.2c0-9-28-2.6-28-20.3c0-7.5,6.6-14,18.5-14c6.2,0,13.2,1.9,16.4,5.5
			c0.5,0.7,0.8,1.4,0.8,2.3c0,2.3-1.9,3.9-4.1,3.9c-0.7,0-1.4-0.1-2-0.5c-2.8-2-6.9-3.2-10.9-3.2c-5.1,0-8.4,2.6-8.4,5.7
			c0,8.2,27.8,2,27.8,20.3C479.3,108.5,472.6,114.8,460.1,114.8z"/>
	</g>
</g>
<path class="st1" d="M134.5,80.6c-22.3,0.4-17.7,14.6-33.4,18.1c-16,3.6-18.5-39.1-34.6-39.1c-16,0-19.6,41.5-39.6,70l-0.6,0.8
	l43,24.8l65.2-37.6V80.6L134.5,80.6z"/>
<path class="st2" d="M134.5,79.3c-7.5-9.6-12.6-20.7-23.5-20.7c-19.3,0-14.2,31.5-35.6,31.5s-23.6-33.9-47.8-2
	c-7.7,10.2-13.9,21.5-18.8,32.2l60.5,34.9l65.2-37.6V79.3L134.5,79.3z"/>
<path class="st3" d="M4.1,92.3C11.4,72,14.6,55.6,28.6,55.6c21.4,0,26.5,60,44.8,53.9s16.3-38.7,44.8-38.7c5.4,0,11,3.3,16.4,8.7
	v38.1l-65.2,37.6L4.2,117.6L4.1,92.3L4.1,92.3z"/>
<path class="st4" d="M69.3,160L0,120V40L69.3,0l69.3,40v80L69.3,160z M8.1,115.3l61.2,35.3l61.2-35.3V44.7L69.3,9.4L8.1,44.7V115.3z
	"/>
</svg>
