<?xml version="1.0" encoding="utf-8"?>
<!-- Generator: Adobe Illustrator 21.0.0, SVG Export Plug-In . SVG Version: 6.00 Build 0)  -->
<svg version="1.1" id="katman_1" xmlns="http://www.w3.org/2000/svg" xmlns:xlink="http://www.w3.org/1999/xlink" x="0px" y="0px"
	 viewBox="0 0 507.7 114.6" style="enable-background:new 0 0 507.7 114.6;" xml:space="preserve">
<style type="text/css">
	.st0{fill:#131B28;}
	.st1{fill:#0466AB;}
</style>
<g id="Layer_5">
	<path d="M217.1,44.8L217.1,44.8l-3.2,11.5L217.1,44.8L217.1,44.8z"/>
	<path d="M233.8,69.8l-3.6,0L233.8,69.8z"/>
	<path d="M232.9,87L232.9,87l-21.5,0.1L232.9,87L232.9,87z"/>
	<path d="M237.4,69.8l-3.6,0L237.4,69.8z"/>
	<path d="M234.8,85.5l3.7-14.3L234.8,85.5L234.8,85.5L234.8,85.5z"/>
	<path d="M313.8,19.9l-7,32.7L313.8,19.9z"/>
	<path d="M295.9,19.9l-5.3,24.5L295.9,19.9L295.9,19.9z"/>
	<path d="M312.6,18.4h-14.9c-0.8,0-1.6,0.7-1.8,1.5l-5.3,24.5l-5.3,24.5c-0.2,0.8-1,1.5-1.8,1.5h-9h-1.5c-10.4,0-9.2-7.2-7.1-17.1
		c0-0.1,0-0.2,0.1-0.3l0.2-1.2c0-0.1,0-0.2,0-0.2l0.5-2.5l0.5-2.7c0.2-0.8,0.4-2,0.5-2.8l2.4-11.7l2.4-11.7c0.2-0.8-0.4-1.5-1.2-1.5
		H256c-0.8,0-1.6,0.7-1.8,1.5l-3.3,15.6L247.7,51c0,0,0,0,0,0l-0.3,1.4c-3.8,17.3-2.8,33.8,17.8,34.3c0.3,0,0.6,0,0.6,0H298
		c0.8,0,1.6-0.7,1.8-1.5l7-32.7l7-32.7C313.9,19.1,313.4,18.4,312.6,18.4L312.6,18.4z"/>
	<path d="M372,70.4c0.8,0,1.4,0.7,1.2,1.5l-1.4,7.1"/>
	<path d="M370.3,86l1.4-7.1L370.3,86C370.3,86,370.3,86,370.3,86L370.3,86z"/>
	<path d="M368.5,87.5C368.5,87.5,368.5,87.5,368.5,87.5c-4.4,0-17.5,0.1-27.4,0.1C353.1,87.6,368.5,87.5,368.5,87.5L368.5,87.5z"/>
	<path d="M332.2,61.3c0-0.8,0.9-2.1,1.7-2.1l-1.9,0C331.2,67.6,332.2,61.3,332.2,61.3L332.2,61.3z"/>
	<path d="M342.4,87.6c-0.1,0-0.2,0-0.3,0C342.2,87.6,342.3,87.6,342.4,87.6z"/>
	<path d="M372,70.4c0.8,0,1.4,0.7,1.2,1.5l-1.4,7.1l-0.2,1.2"/>
	<path d="M349.4,87.6L349.4,87.6L349.4,87.6z"/>
	<path d="M345.8,87.6h-0.2H345.8z"/>
	<path d="M344.7,87.6c-0.1,0-0.2,0-0.4,0C344.4,87.6,344.6,87.6,344.7,87.6z"/>
	<path d="M343.5,87.6h-0.3H343.5z"/>
	<path d="M345.6,87.6c-0.3,0-0.6,0-0.9,0C345,87.6,345.3,87.6,345.6,87.6z"/>
	<path d="M349.4,87.6c-1.2,0-2.4,0-3.6,0C347,87.6,348.2,87.6,349.4,87.6z"/>
	<path d="M368.5,87.5L368.5,87.5c-3.2,0-11.1,0.1-19,0.1C357.3,87.6,365.3,87.5,368.5,87.5z"/>
	<path d="M370.3,86l1.2-5.9L370.3,86C370.3,86,370.3,86,370.3,86L370.3,86z"/>
	<path d="M344.3,87.6h-0.8H344.3z"/>
	<path d="M342.1,87.6H341H342.1z"/>
	<path d="M343.2,87.6h-0.8H343.2z"/>
	<path class="st0" d="M125.4,61.5l2.3-10.3L125.1,63l-2.5,11.9l2.2-10.5C125,63.6,125.2,62.3,125.4,61.5L125.4,61.5z"/>
	<path d="M153.1,18.2h-16.4c-0.8,0-1.7,0.7-1.8,1.5l-1.6,6.8l-1.6,6.8c-0.2,0.8,0.3,1.5,1.2,1.5h16.5c0.8,0,1.6-0.7,1.8-1.5l1.5-6.8
		l1.5-6.8v0C154.5,18.9,153.9,18.2,153.1,18.2L153.1,18.2z"/>
	<path d="M149.6,41L149.6,41l-4.8,22.2L149.6,41z"/>
	<path class="st0" d="M102,114.5c0,0,8.2,0.1,13.5,0.1C111.6,114.6,105,114.5,102,114.5C102,114.5,102,114.5,102,114.5L102,114.5z"
		/>
	<path class="st0" d="M130.1,41l-2.3,10.3L130.1,41z"/>
	<path d="M148.4,39.5h-16.5c-0.8,0-1.7,0.7-1.8,1.5l-2.3,10.3l-2.3,10.3c-0.2,0.8-0.5,2.1-0.6,2.9l-2.2,10.5l-2.2,10.5
		c-0.2,0.8-0.5,2.1-0.8,2.9c0,0-3.1,9.2-8.3,9.1c-0.2,0-0.4,0-0.6,0c-2.5,0-4.5-0.1-4.5-0.1h0c-0.8,0-1.7,0.6-1.8,1.4l-1.7,7.2
		l-1.7,7.2c-0.2,0.8,0.3,1.5,1.1,1.5c2.9,0,9.5,0.1,13.5,0.1c12.9,0,19.7-7.2,24.1-27.8l5.1-23.7l4.8-22.2
		C149.7,40.2,149.2,39.5,148.4,39.5L148.4,39.5z"/>
	<path d="M382.5,86.8c-0.8,0-1.4-0.7-1.2-1.5l12.4-58.1"/>
	<path d="M399.7,85.3l5-24.8L399.7,85.3z"/>
	<path d="M381.5,86.1c-0.1-0.4,0-1.4,0.1-2.2l5.9-27.6l-6.2,29c-0.2,0.8,0.4,1.5,1.2,1.5h1.5C383.2,86.8,381.6,86.5,381.5,86.1
		L381.5,86.1z"/>
	<path d="M398.7,86.5c-0.5,0.2-1.5,0.3-2.3,0.3h1.5c0.8,0,1.6-0.7,1.8-1.5l0.3-1.5C399.8,84.7,399.2,86.3,398.7,86.5L398.7,86.5z"/>
	<path d="M402.2,72.9l2.2-10.9c0,0,0,0,0,0L402.2,72.9L402.2,72.9z"/>
	<path d="M451.1,31.2l0.7,2.8c0.2,0.8-0.3,1.5-1.2,1.5"/>
	<path d="M400,83.9l2.2-10.9L400,83.9z"/>
	<path d="M450.5,28.3l0.7,2.9L450.5,28.3z"/>
	<path d="M404.4,62c0.2-0.8,0.4-2.1,0.6-2.9l2.4-11.1l-2.7,12.5L404.4,62L404.4,62z"/>
	<path d="M393.9,26.3c-0.2,0.8-0.4,1.8-0.5,2.4l-5.9,27.6l6.2-29L393.9,26.3L393.9,26.3z"/>
	<path d="M451.8,34l-0.7-2.8l-0.7-2.9l-0.3-1.5c-1.3-5.2-5.3-8.2-13.8-8.2l-13.3,0l-12.2,0h-1H397c-0.8,0-1.6,0.7-1.8,1.5l0,0
		l-0.6,2.9l-0.7,3.4l-0.2,1l-6.2,29l-5.9,27.6c-0.2,0.8-0.2,1.8-0.1,2.2c0.1,0.4,1.7,0.7,2.5,0.7h12.4c0.8,0,1.9-0.1,2.3-0.3
		c0.5-0.2,1.1-1.8,1.3-2.6l2.2-10.9l2.2-10.9c0,0,0,0,0,0l0.3-1.5l2.7-12.5l2.4-11.1c0.2-0.8,1-1.5,1.8-1.5l39.1,0
		C451.5,35.4,452,34.8,451.8,34L451.8,34z"/>
	<path d="M502.1,8.5c-0.8,0-2.2,0-3,0h-12.5c-0.8,0-1.9,0.6-2.4,1.2l-27.7,40.5c-0.5,0.7-1,0.6-1.2-0.2l-2-8.9
		c-0.2-0.8-1-1.5-1.8-1.5h-17.8c-0.8,0-1.3,0.6-1.1,1.4l8,27.9c0.2,0.8,0.2,2.1,0,2.9l-3.5,13.5c-0.2,0.8,0.3,1.5,1.1,1.5h17.6
		c0.8,0,1.7-0.7,1.9-1.5l3.5-13.5c0.2-0.8,0.8-2,1.3-2.7l44.9-59.6c0.5-0.7,0.2-1.2-0.6-1.2L502.1,8.5L502.1,8.5z"/>
	<path d="M360.9,43.4L360.9,43.4c-0.1,0.9-0.9,1.5-1.8,1.5h-22.5c-0.8,0-1.2-0.5-1.1-1.2c0,0,0,0,0-0.1c0,0,0,0,0,0c0,0,0,0,0-0.1
		c0,0,0-0.2,0.1-0.4c2.2-5.7,6.5-9.5,14.8-9.5C359.7,33.8,361.5,38.3,360.9,43.4L360.9,43.4z M354.3,17.4
		c-28.9,0-35.8,17.6-39.6,35.3c-3.8,18.1-3.5,35,26.4,35h1.1c0.1,0,0.2,0,0.3,0h0.8h0.3h0.8c0.1,0,0.2,0,0.4,0c0.3,0,0.6,0,0.9,0
		h0.2c1.2,0,2.4,0,3.6,0h0.1c7.9,0,15.8-0.1,19.1-0.1c0.8,0,1.6-0.7,1.8-1.5l1.2-5.9l0.2-1.2l1.4-7.1c0.2-0.8-0.4-1.5-1.2-1.5h-26.9
		c-10.7,0-13.9-2.8-12.7-11.2h43l0,0c0,0,0,0,0,0c0.7,0,1.3-0.5,1.6-1.1c0-0.1,0.1-0.2,0.1-0.4l0,0
		C383.4,33.6,381.6,17.4,354.3,17.4L354.3,17.4z"/>
	<path d="M217.5,43.3l-0.4,1.4c0,0,0,0,0,0l-3.2,11.5l-3.2,11.5c-0.2,0.8-1.1,1.4-1.9,1.4h-17.2c-13,0-16.2-10.2-13-25.2
		c3.2-15.4,9.4-25,22.2-25.9C218.2,16.7,221.7,29.1,217.5,43.3L217.5,43.3z M229.3,68.4c0,0,8.1-19.7,9.9-31.1
		C241.8,22.1,234.1,0,204.7,0c-29.3,0-42,21.1-46.8,44c-4.8,23.1,1.5,43.3,30.6,43.2l23-0.1l21.5-0.1c0.8,0,1.7-0.7,1.9-1.5
		l3.7-14.3c0.2-0.8-0.3-1.5-1.1-1.5l-3.6,0l-3.6,0c-0.7,0-1.1-0.5-1-1.1C229.2,68.6,229.2,68.5,229.3,68.4L229.3,68.4z"/>
	<path d="M374.2,55.2c0,0.5-0.4,1-1,1c-0.5,0-1-0.4-1-1c0-0.5,0.4-1,1-1C373.7,54.2,374.2,54.6,374.2,55.2z"/>
	<path class="st1" d="M5.8,29.6c-8.1,11.6-7.1,26.7-0.9,39.1c0.1,0.3,0.3,0.6,0.5,0.9c0.1,0.2,0.2,0.4,0.3,0.6
		c0.1,0.1,0.1,0.2,0.2,0.3C5.9,70.6,6,70.8,6.1,71c0.2,0.3,0.4,0.7,0.6,1c0.1,0.2,0.2,0.4,0.3,0.6c0.2,0.4,0.5,0.7,0.7,1.1
		c0.1,0.2,0.2,0.3,0.3,0.4c0.3,0.5,0.7,1,1,1.4c0,0,0,0,0,0c0.1,0.1,0.1,0.1,0.2,0.2c0.3,0.4,0.6,0.8,0.9,1.2
		c0.1,0.1,0.2,0.3,0.3,0.4c0.3,0.3,0.6,0.7,0.8,1c0.1,0.1,0.2,0.3,0.3,0.4c0.4,0.4,0.8,0.9,1.2,1.3c0,0,0,0,0,0c0,0,0,0,0,0
		c0.4,0.4,0.8,0.8,1.2,1.2c0.1,0.1,0.3,0.3,0.4,0.4c0.3,0.3,0.6,0.6,0.9,0.9c0.1,0.1,0.3,0.2,0.4,0.4c0.4,0.4,0.9,0.8,1.3,1.2
		c0,0,0,0,0,0c0.1,0.1,0.2,0.1,0.2,0.2c0.4,0.3,0.8,0.7,1.2,1c0.2,0.1,0.3,0.3,0.5,0.4c0.3,0.3,0.6,0.5,1,0.8
		c0.2,0.1,0.3,0.3,0.5,0.4c0.4,0.3,0.7,0.5,1.1,0.8c0.1,0.1,0.3,0.2,0.4,0.3c0,0,0.1,0.1,0.1,0.1c0.4,0.2,0.7,0.5,1.1,0.7
		c0.2,0.1,0.3,0.2,0.5,0.3c0.5,0.3,1.1,0.7,1.7,1c0.2,0.1,0.3,0.2,0.5,0.3c0.4,0.2,0.8,0.5,1.3,0.7c0.2,0.1,0.5,0.2,0.7,0.4
		c0.3,0.2,0.6,0.3,0.9,0.5c0.1,0,0.1,0.1,0.2,0.1c0.1,0.1,0.2,0.1,0.4,0.2c0.5,0.2,0.9,0.4,1.4,0.7c0.1,0,0.2,0.1,0.3,0.1
		c0.5,0.2,1.1,0.5,1.7,0.7c0.1,0.1,0.3,0.1,0.4,0.2c0.5,0.2,1,0.4,1.6,0.6c0.1,0,0.1,0,0.2,0.1c0.6,0.2,1.2,0.4,1.7,0.6
		c0.1,0,0.3,0.1,0.4,0.1c0.6,0.2,1.2,0.4,1.8,0.5c39.1,7.1,50.4-23.5,50.4-23.5C79.5,84.7,62.6,88,46.6,84.4
		c-0.6-0.1-1.2-0.3-1.8-0.5c-0.2,0-0.3-0.1-0.4-0.1c-0.6-0.2-1.2-0.4-1.7-0.6c-0.1,0-0.2-0.1-0.2-0.1c-0.5-0.2-1-0.4-1.5-0.6
		c-0.1-0.1-0.3-0.1-0.4-0.2c-0.6-0.2-1.1-0.4-1.6-0.7c-0.1,0-0.2-0.1-0.3-0.1c-0.5-0.2-0.9-0.4-1.4-0.6c-0.1-0.1-0.3-0.1-0.4-0.2
		c-0.4-0.2-0.7-0.4-1.1-0.5c-0.2-0.1-0.5-0.2-0.7-0.4c-0.4-0.2-0.9-0.5-1.3-0.7c-0.1-0.1-0.3-0.2-0.4-0.2c-0.6-0.3-1.1-0.7-1.7-1
		c-0.2-0.1-0.3-0.2-0.5-0.3c-0.4-0.3-0.8-0.5-1.2-0.8c-0.1-0.1-0.3-0.2-0.4-0.3c-0.4-0.3-0.8-0.5-1.1-0.8c-0.2-0.1-0.3-0.3-0.5-0.4
		c-0.3-0.3-0.7-0.5-1-0.8c-0.2-0.1-0.3-0.2-0.5-0.4c-0.4-0.4-0.8-0.7-1.3-1.1c0,0-0.1-0.1-0.1-0.1c-0.4-0.4-0.9-0.8-1.3-1.2
		c-0.1-0.1-0.2-0.2-0.4-0.4c-0.3-0.3-0.6-0.6-1-0.9c-0.1-0.1-0.3-0.2-0.4-0.4c-0.4-0.4-0.8-0.8-1.2-1.2c0,0,0,0-0.1-0.1
		c-0.4-0.4-0.8-0.9-1.2-1.4c-0.1-0.1-0.2-0.2-0.3-0.4c-0.3-0.3-0.6-0.7-0.9-1.1c-0.1-0.1-0.2-0.3-0.3-0.4c-0.3-0.4-0.7-0.9-1-1.3
		C8.2,52.1,5,35.3,12.1,21.6"/>
	<path class="st1" d="M30.9,19.8c-5.8,8.4-5.5,19.7-1,28.6c0.8,1.5,1.6,2.9,2.6,4.3c0.9,1.3,1.8,2.7,3,3.8c0.4,0.5,0.9,0.9,1.3,1.4
		c0.1,0.1,0.2,0.2,0.3,0.3c0.4,0.4,0.9,0.8,1.3,1.2c0,0,0,0,0.1,0c0,0,0,0,0,0c0.5,0.4,1,0.9,1.6,1.3c0.1,0.1,0.2,0.2,0.4,0.3
		c0.5,0.4,1.1,0.8,1.6,1.2c0,0,0,0,0,0c0.2,0.2,0.5,0.3,0.7,0.5c0.1,0.1,0.2,0.2,0.4,0.2c0.4,0.3,0.8,0.5,1.2,0.7
		c0.1,0,0.1,0.1,0.2,0.1c0.4,0.2,0.7,0.4,1.1,0.6c0.1,0.1,0.3,0.1,0.4,0.2c0.2,0.1,0.5,0.3,0.8,0.4c0,0,0.1,0,0.1,0.1
		c0.5,0.3,1,0.5,1.6,0.7c0.1,0,0.2,0.1,0.3,0.1c0.4,0.2,0.9,0.4,1.3,0.5c0.2,0.1,0.4,0.1,0.5,0.2c0.4,0.1,0.8,0.3,1.2,0.4
		c0.2,0.1,0.4,0.1,0.5,0.2c0.6,0.2,1.1,0.4,1.7,0.5c30.2,5,37.1-18.2,37.1-18.2c-6.3,9-18.4,13.4-31.4,10c-0.6-0.2-1.1-0.3-1.7-0.5
		c-0.2-0.1-0.3-0.1-0.5-0.2c-0.4-0.1-0.8-0.3-1.2-0.4c-0.2-0.1-0.4-0.1-0.5-0.2c-0.4-0.2-0.9-0.3-1.3-0.5c-0.1,0-0.2-0.1-0.3-0.1
		c-0.5-0.2-1.1-0.5-1.6-0.7c-0.3-0.1-0.5-0.3-0.8-0.4c-0.2-0.1-0.3-0.2-0.5-0.2c-0.3-0.2-0.7-0.4-1-0.6c-0.1,0-0.2-0.1-0.2-0.1
		c-0.4-0.2-0.8-0.5-1.2-0.7c-0.1-0.1-0.2-0.2-0.4-0.2c-0.3-0.2-0.5-0.3-0.8-0.5c-0.6-0.4-1.1-0.8-1.6-1.2c-0.1-0.1-0.2-0.2-0.4-0.3
		C40.2,48,35.7,41.9,33.5,34.9c-2.2-7.2-1.8-15.3,2.1-21.9"/>
	<path class="st1" d="M52,12.5c-3.4,5.1-3.8,11.4-1.4,17c2.5,5.9,7.7,10.6,13.7,12.8c0.2,0.1,0.5,0.2,0.7,0.3c0.1,0,0.2,0.1,0.3,0.1
		c0.4,0.1,0.7,0.2,1.1,0.3c16.7,3.2,21.2-8.6,22.4-10.3c-4,5.7-10.6,7.1-18.8,5.1c-0.6-0.2-1.4-0.4-2-0.6c-0.8-0.3-1.6-0.6-2.3-1
		c-1.4-0.7-2.8-1.5-4.1-2.5c-7.3-5.5-11.8-16.1-7.1-24.7"/>
</g>
</svg>
