<?xml version="1.0" encoding="utf-8"?>
<!-- Generator: Adobe Illustrator 19.1.0, SVG Export Plug-In . SVG Version: 6.00 Build 0)  -->
<svg version="1.1" id="Layer_1" xmlns:sketch="http://www.bohemiancoding.com/sketch/ns"
	 xmlns="http://www.w3.org/2000/svg" xmlns:xlink="http://www.w3.org/1999/xlink" x="0px" y="0px" viewBox="-344 241 270 79"
	 style="enable-background:new -344 241 270 79;" xml:space="preserve">
<style type="text/css">
	.st0{fill:#00D8FF;}
	.st1{enable-background:new    ;}
</style>
<title>craft-cms-logo</title>
<desc>Created with Sketch.</desc>
<g>
	<g>
		<circle class="st0" cx="-303.7" cy="280.8" r="7.2"/>
	</g>
	<g>
		<path class="st0" d="M-303.7,297.3c-10.1,0-18.9-1.2-25.5-3.5c-4.3-1.5-7.9-3.4-10.5-5.6c-2.8-2.4-4.2-4.9-4.2-7.4
			c0-4.8,5.2-9.4,14-12.5c7.2-2.5,16.5-3.9,26.3-3.9c9.6,0,18.8,1.3,25.9,3.8c4.2,1.4,7.7,3.3,10.2,5.4c2.7,2.3,4.1,4.7,4.1,7.2
			c0,4.9-5.8,10-15.2,13.1C-285.4,296.1-294.2,297.3-303.7,297.3z M-303.7,267.9c-9.3,0-18.4,1.3-25.2,3.7c-5.8,2-11.7,5.7-11.7,9.2
			c0,1.4,1.1,3.1,3,4.8c2.3,1.9,5.5,3.7,9.4,5c6.3,2.2,14.7,3.3,24.4,3.3c9.1,0,17.6-1.1,24-3.3c8.9-2.9,12.9-7.1,12.9-9.8
			c0-1.3-1-3-2.9-4.5c-2.2-1.8-5.3-3.5-9.1-4.8C-285.7,269.2-294.5,267.9-303.7,267.9z"/>
	</g>
	<g>
		<path class="st0" d="M-320,316.7c-1.5,0-2.8-0.3-3.8-0.9c-4.1-2.4-5.5-9.2-3.8-18.3c1.4-7.5,4.9-16.2,9.8-24.7l0,0
			c4.8-8.3,10.6-15.6,16.3-20.6c3.3-2.9,6.7-5,9.7-6.1c3.3-1.2,6.2-1.2,8.3,0c4.3,2.5,5.7,10,3.7,19.7c-1.4,6.9-4.8,15.2-9.5,23.4
			c-5,8.7-10.5,15.8-15.7,20.4c-3.4,3-6.9,5.2-10.1,6.3C-317.1,316.4-318.6,316.7-320,316.7z M-315,274.4c-4.6,8-8.1,16.6-9.4,23.6
			c-1.1,6-0.9,12.9,2.2,14.7c2.3,1.3,7.9,0.1,14.7-5.9c5-4.4,10.2-11.1,15-19.5c4.6-7.9,7.8-15.8,9.2-22.4c0.9-4.2,1.1-8,0.6-10.9
			c-0.4-2.6-1.3-4.4-2.6-5.1c-1.2-0.7-3.1-0.6-5.4,0.2c-2.6,1-5.7,2.9-8.7,5.5C-304.8,259.4-310.3,266.4-315,274.4L-315,274.4z"/>
	</g>
	<g>
		<path class="st0" d="M-287.4,316.7c-3.9,0-8.9-2.4-14-6.8c-5.8-5-11.6-12.3-16.5-20.8l0,0c-4.8-8.3-8.3-17-9.7-24.4
			c-0.9-4.3-1-8.3-0.4-11.5c0.6-3.5,2-6,4.1-7.2c4.3-2.5,11.5,0.1,18.9,6.6c5.2,4.7,10.7,11.8,15.5,19.9c5.1,8.7,8.5,17,9.8,23.8
			c0.9,4.4,1,8.6,0.4,11.9c-0.7,3.6-2.2,6.1-4.3,7.4C-284.7,316.4-286,316.7-287.4,316.7z M-314.9,287.4c4.6,8,10.4,15.3,15.8,19.9
			c4.7,4,10.7,7.3,13.8,5.5c2.3-1.3,4-6.8,2.2-15.6c-1.3-6.5-4.5-14.4-9.4-22.8c-4.6-7.9-9.8-14.7-14.8-19.1
			c-3.2-2.8-6.4-4.9-9.2-5.9c-2.4-0.9-4.5-1-5.7-0.3c-1.2,0.7-2,2.4-2.5,4.8c-0.5,2.8-0.3,6.3,0.4,10.2
			C-322.9,271.1-319.6,279.4-314.9,287.4L-314.9,287.4z"/>
	</g>
</g>
<g class="st1">
	<path class="st0" d="M-223.2,306.2l-13.1-20.5h-10.3v20.5h-6.4v-51.5h20.7c9.4,0,16.1,6,16.1,15.5c0,9.3-6.3,14.4-13.4,15l13.9,21
		H-223.2z M-222.8,270.2c0-5.8-4.2-9.8-10.3-9.8h-13.5v19.7h13.5C-227,280.1-222.8,276-222.8,270.2z"/>
</g>
<g class="st1">
	<path class="st0" d="M-210,287.5c0-10.8,7.7-19.5,18.4-19.5c11.3,0,17.9,8.8,17.9,20v1.5h-30.2c0.5,7,5.4,12.9,13.4,12.9
		c4.2,0,8.6-1.7,11.5-4.7l2.8,3.8c-3.7,3.7-8.7,5.7-14.8,5.7C-202,307.1-210,299.2-210,287.5z M-191.7,272.8
		c-8,0-11.9,6.7-12.2,12.4h24.5C-179.5,279.6-183.2,272.8-191.7,272.8z"/>
</g>
<g class="st1">
	<path class="st0" d="M-143.3,306.2v-4.2c-3.1,3.4-7.3,5.2-12.4,5.2c-6.3,0-13.1-4.2-13.1-12.4c0-8.3,6.7-12.3,13.1-12.3
		c5.1,0,9.3,1.6,12.4,5.1v-6.7c0-5-4-7.9-9.4-7.9c-4.5,0-8.1,1.6-11.4,5.2l-2.7-4c4-4.2,8.8-6.2,14.9-6.2c7.9,0,14.4,3.6,14.4,12.6
		v25.6H-143.3z M-143.3,298.3v-7c-2.2-3.1-6.2-4.6-10.3-4.6c-5.4,0-9.2,3.4-9.2,8.2c0,4.7,3.8,8.1,9.2,8.1
		C-149.5,303-145.6,301.4-143.3,298.3z"/>
</g>
<g class="st1">
	<path class="st0" d="M-132,287.5c0-11,7.5-19.5,18.6-19.5c6.8,0,10.8,2.8,13.7,6.5l-3.9,3.6c-2.5-3.4-5.6-4.9-9.5-4.9
		c-8,0-12.9,6.1-12.9,14.4c0,8.3,4.9,14.4,12.9,14.4c3.9,0,7-1.5,9.5-4.9l3.9,3.6c-2.9,3.7-6.9,6.5-13.7,6.5
		C-124.5,307.1-132,298.6-132,287.5z"/>
	<path class="st0" d="M-90.4,298.4V274h-6.2v-5.1h6.2v-10.2h5.8v10.2h7.6v5.1h-7.6v23.2c0,2.8,1.2,4.8,3.8,4.8
		c1.6,0,3.2-0.7,3.9-1.5l1.7,4.3c-1.5,1.4-3.6,2.4-7,2.4C-87.7,307.1-90.4,304-90.4,298.4z"/>
</g>
</svg>
