<?xml version="1.0" encoding="utf-8"?>
<!-- Generator: Adobe Illustrator 19.0.0, SVG Export Plug-In . SVG Version: 6.00 Build 0)  -->
<svg version="1.1" id="katman_1" xmlns="http://www.w3.org/2000/svg" xmlns:xlink="http://www.w3.org/1999/xlink" x="0px" y="0px"
	 viewBox="0 0 300 40.2" style="enable-background:new 0 0 300 40.2;" xml:space="preserve">
<style type="text/css">
	.st0{fill:#95C11F;}
	.st1{fill:#E94E1B;}
	.st2{fill:#009FE3;}
</style>
<g id="XMLID_199_">
	<path id="isim" d="M3.5,10.5h23.2c1.3,0,2.3,0.7,3.1,2.2c0.2,0.5,0.2,0.8,0.2,1.1v0.8c0,1.2-0.7,2.2-2.2,3
		c-0.5,0.2-0.9,0.3-1.4,0.3h-19v3.8h14.9c1.8,0,3,0.9,3.7,2.8c0.1,0.3,0.1,0.6,0.1,0.8v0.2c0,1.6-0.9,2.8-2.8,3.5L22.7,29H7.5v7.6
		c0,1.6-0.9,2.8-2.8,3.5c-0.2,0-0.4,0.1-0.5,0.1H3.3c-1.3,0-2.3-0.8-3.1-2.3C0.1,37.5,0,37.2,0,36.9V13.9c0-1.5,0.9-2.6,2.7-3.3
		C3,10.5,3.2,10.5,3.5,10.5z M46.9,10.5h0.6c1.5,0,2.8,1.2,3.7,3.7c7.1,14,10.7,21.2,10.9,21.8V37c0,1.3-0.8,2.3-2.5,3
		c-0.4,0.1-0.6,0.1-0.9,0.1h-0.5c-1.5,0-2.8-1.3-3.8-3.8c-4.9-9.6-7.3-14.5-7.4-14.5c-5.5,11-8.3,16.7-8.6,17.1
		c-0.8,0.8-1.7,1.2-2.5,1.2h-0.5c-1.3,0-2.3-0.8-3.1-2.3c-0.1-0.4-0.2-0.8-0.2-1.1v-0.5c0-0.6,0.7-2.1,2.1-4.8l10-19.7
		C45,11,45.9,10.5,46.9,10.5z M67.7,10.5h23.2c1.3,0,2.3,0.7,3.1,2.2c0.2,0.5,0.2,0.8,0.2,1.1v0.8c0,1.2-0.7,2.2-2.2,3
		c-0.5,0.2-0.9,0.3-1.4,0.3H83v18.9c0,1.5-0.9,2.7-2.7,3.4l-0.6,0.1h-0.8c-1.2,0-2.2-0.7-3-2.2c-0.2-0.5-0.3-0.9-0.3-1.3V17.9H68
		c-1.8,0-3-0.9-3.7-2.6c-0.1-0.4-0.1-0.6-0.1-0.8v-0.5c0-1.5,0.9-2.6,2.7-3.3C67.2,10.5,67.5,10.5,67.7,10.5z M102.8,10.5h0.6
		c1.3,0,2.3,0.7,3.2,2.1c0.2,0.5,0.4,1,0.4,1.6v22.4c0,1.6-1,2.8-2.9,3.5c-0.2,0-0.4,0.1-0.5,0.1h-0.8c-1.3,0-2.4-0.8-3.2-2.3
		c-0.2-0.4-0.2-0.8-0.2-1.1V13.9c0-1.5,0.9-2.6,2.7-3.3C102.2,10.5,102.5,10.5,102.8,10.5z M115.2,10.5h0.5c1.2,0,2.3,0.7,3.1,2.1
		c0.2,0.5,0.4,1,0.4,1.6v7.4h15.1v-7.2c0-2,1-3.3,2.9-3.9c0.3,0,0.5-0.1,0.7-0.1h0.5c1.3,0,2.3,0.7,3.1,2.2c0.2,0.5,0.2,0.8,0.2,1.1
		V37c0,1.1-0.7,2.1-2.1,2.9c-0.4,0.2-0.8,0.3-1.1,0.3h-0.8c-1.3,0-2.4-0.8-3.1-2.4c-0.2-0.5-0.2-1-0.2-1.6V29h-15.1v7.6
		c0,1.6-0.9,2.8-2.8,3.5c-0.2,0-0.4,0.1-0.5,0.1h-0.8c-1.3,0-2.3-0.8-3.1-2.3c-0.2-0.4-0.2-0.8-0.2-1.1V13.9c0-1.5,0.9-2.6,2.7-3.3
		C114.7,10.5,115,10.5,115.2,10.5z M158.9,10.5h23.2c1.3,0,2.3,0.7,3.1,2.2c0.2,0.5,0.2,0.8,0.2,1.1v0.8c0,1.2-0.7,2.2-2.2,3
		c-0.5,0.2-0.9,0.3-1.4,0.3h-7.7v18.9c0,1.5-0.9,2.7-2.7,3.4l-0.6,0.1H170c-1.2,0-2.2-0.7-3-2.2c-0.2-0.5-0.3-0.9-0.3-1.3V17.9h-7.5
		c-1.8,0-3-0.9-3.7-2.6c-0.1-0.4-0.1-0.6-0.1-0.8v-0.5c0-1.5,0.9-2.6,2.7-3.3C158.3,10.5,158.6,10.5,158.9,10.5z M191,10.5h23.2
		c1.3,0,2.3,0.7,3.1,2.2c0.2,0.5,0.2,0.8,0.2,1.1v0.8c0,1.2-0.7,2.2-2.2,3c-0.5,0.2-0.9,0.3-1.4,0.3h-19v3.8h14.7
		c1.9,0,3.1,0.7,3.8,2.2c0.2,0.4,0.3,0.8,0.3,1.2v0.5c0,1.5-0.9,2.6-2.7,3.3c-0.3,0.1-0.6,0.1-0.8,0.1H195v3.8h18.6
		c2.2,0,3.5,1.1,4,3.2v1c0,1.1-0.7,2.1-2.1,2.9c-0.4,0.2-0.8,0.3-1.1,0.3h-23.5c-1.3,0-2.3-0.8-3.1-2.3c-0.2-0.4-0.2-0.8-0.2-1.1
		V13.9c0-1.5,0.9-2.6,2.7-3.3C190.5,10.5,190.7,10.5,191,10.5z M225.9,10.5h0.5c1.2,0,2.3,0.7,3.1,2.1c0.2,0.5,0.4,1,0.4,1.6v18.6
		h18.6c2.2,0,3.5,1.1,4,3.2v1c0,1.1-0.7,2.1-2.1,2.9c-0.4,0.2-0.8,0.3-1.1,0.3h-23.5c-1.3,0-2.3-0.8-3.1-2.3
		c-0.2-0.4-0.2-0.8-0.2-1.1V13.9c0-1.5,0.9-2.6,2.7-3.3C225.4,10.5,225.7,10.5,225.9,10.5z M261,10.5h0.6c1.3,0,2.3,0.7,3.2,2.1
		c0.2,0.5,0.4,1,0.4,1.6v22.4c0,1.6-1,2.8-2.9,3.5c-0.2,0-0.4,0.1-0.5,0.1h-0.8c-1.3,0-2.4-0.8-3.2-2.3c-0.2-0.4-0.2-0.8-0.2-1.1
		V13.9c0-1.5,0.9-2.6,2.7-3.3C260.4,10.5,260.7,10.5,261,10.5z M280.3,10.5h16.3c1.5,0,2.6,0.8,3.4,2.5c0,0.2,0.1,0.4,0.1,0.5v1.1
		c0,1.2-0.7,2.2-2.2,3c-0.6,0.2-1,0.3-1.4,0.3h-18.9v3.7h11.3c4.6,0,8,1.4,10.2,4.3c0.7,1.1,1.1,2,1.1,2.8v4.4
		c0,1.7-1.2,3.4-3.5,5.1c-2.2,1.3-4.4,2-6.5,2h-16.8c-1.1,0-2.1-0.6-3-1.9c-0.2-0.4-0.3-0.8-0.3-1.1v-0.8c0-1.5,0.9-2.6,2.7-3.3
		c0.4-0.1,0.9-0.2,1.4-0.2h18.6v-3.7h-11.9c-3.3,0-6.2-1-8.6-3.1c-1.4-1.4-2.1-2.9-2.1-4.3v-3.8c0-2.4,1.7-4.5,5-6.3
		C276.9,10.9,278.7,10.5,280.3,10.5z"/>
	<rect id="square" x="257.4" class="st0" width="7.7" height="7.7"/>
	<circle id="circle" class="st1" cx="103" cy="3.8" r="3.8"/>
	<path id="triangle" class="st2" d="M47.1,31.1c-1.4,2.9-2.7,5.5-3.8,7.7H51C49.1,35,47.1,31.1,47.1,31.1z"/>
</g>
</svg>
